<svg width="114" height="34" viewBox="0 0 114 34" fill="none" xmlns="http://www.w3.org/2000/svg">
<path d="M46.928 15.32V14.28H48.736C49.0667 14.28 49.3547 14.2267 49.6 14.12C49.8453 14.0133 50.032 13.8587 50.16 13.656C50.2987 13.4533 50.368 13.2133 50.368 12.936C50.368 12.5093 50.2187 12.184 49.92 11.96C49.632 11.736 49.2373 11.624 48.736 11.624H47.504V19.176H48.976C49.36 19.176 49.7067 19.1227 50.016 19.016C50.3253 18.8987 50.5653 18.7173 50.736 18.472C50.9173 18.2267 51.008 17.912 51.008 17.528C51.008 17.2507 50.9547 17.016 50.848 16.824C50.752 16.6213 50.608 16.456 50.416 16.328C50.2347 16.1893 50.0213 16.0933 49.776 16.04C49.5307 15.976 49.264 15.944 48.976 15.944H46.928V14.696H49.184C49.728 14.696 50.2453 14.7547 50.736 14.872C51.2373 14.9893 51.6853 15.176 52.08 15.432C52.4747 15.6773 52.784 15.9973 53.008 16.392C53.2427 16.7867 53.36 17.2613 53.36 17.816C53.36 18.552 53.184 19.1547 52.832 19.624C52.4907 20.0933 52.0053 20.44 51.376 20.664C50.7467 20.888 50.016 21 49.184 21H45.216V9.8H48.944C49.6907 9.8 50.3467 9.90667 50.912 10.12C51.4773 10.3227 51.92 10.632 52.24 11.048C52.56 11.464 52.72 11.992 52.72 12.632C52.72 13.1973 52.56 13.6827 52.24 14.088C51.92 14.4933 51.4773 14.8027 50.912 15.016C50.3467 15.2187 49.6907 15.32 48.944 15.32H46.928ZM57.8538 15.784H60.2698L63.9178 21H61.2138L57.8538 15.784ZM55.3098 9.8H57.5978V21H55.3098V9.8ZM56.7018 11.752V9.8H59.0698C59.9551 9.8 60.7071 9.94933 61.3258 10.248C61.9444 10.5467 62.4191 10.9627 62.7498 11.496C63.0804 12.0293 63.2458 12.6533 63.2458 13.368C63.2458 14.072 63.0804 14.696 62.7498 15.24C62.4191 15.7733 61.9444 16.1893 61.3258 16.488C60.7071 16.7867 59.9551 16.936 59.0698 16.936H56.7018V15.112H58.9258C59.3311 15.112 59.6778 15.048 59.9658 14.92C60.2644 14.7813 60.4938 14.5893 60.6538 14.344C60.8138 14.088 60.8938 13.784 60.8938 13.432C60.8938 13.08 60.8138 12.7813 60.6538 12.536C60.4938 12.28 60.2644 12.088 59.9658 11.96C59.6778 11.8213 59.3311 11.752 58.9258 11.752H56.7018ZM67.0716 15.4C67.0716 16.136 67.237 16.7813 67.5676 17.336C67.909 17.88 68.3516 18.3013 68.8956 18.6C69.4396 18.888 70.0316 19.032 70.6716 19.032C71.205 19.032 71.6796 18.9627 72.0956 18.824C72.5116 18.6853 72.885 18.4987 73.2156 18.264C73.557 18.0293 73.8503 17.7733 74.0956 17.496V20.072C73.637 20.4347 73.1356 20.7173 72.5916 20.92C72.0583 21.1227 71.381 21.224 70.5596 21.224C69.7063 21.224 68.9116 21.0853 68.1756 20.808C67.4503 20.5307 66.8156 20.1307 66.2716 19.608C65.7383 19.0853 65.3223 18.472 65.0236 17.768C64.7356 17.0533 64.5916 16.264 64.5916 15.4C64.5916 14.536 64.7356 13.752 65.0236 13.048C65.3223 12.3333 65.7383 11.7147 66.2716 11.192C66.8156 10.6693 67.4503 10.2693 68.1756 9.992C68.9116 9.71467 69.7063 9.576 70.5596 9.576C71.381 9.576 72.0583 9.67733 72.5916 9.88C73.1356 10.0827 73.637 10.3653 74.0956 10.728V13.304C73.8503 13.0267 73.557 12.7707 73.2156 12.536C72.885 12.3013 72.5116 12.1147 72.0956 11.976C71.6796 11.8373 71.205 11.768 70.6716 11.768C70.0316 11.768 69.4396 11.9173 68.8956 12.216C68.3516 12.504 67.909 12.92 67.5676 13.464C67.237 14.008 67.0716 14.6533 67.0716 15.4ZM81.1691 9.8H83.4571V21H81.1691V9.8ZM82.5611 11.736V9.8H84.7851C85.6705 9.8 86.4225 9.944 87.0411 10.232C87.6705 10.52 88.1505 10.9307 88.4811 11.464C88.8118 11.9973 88.9771 12.632 88.9771 13.368C88.9771 14.0933 88.8118 14.728 88.4811 15.272C88.1505 15.8053 87.6705 16.216 87.0411 16.504C86.4225 16.792 85.6705 16.936 84.7851 16.936H82.5611V15H84.7851C85.3931 15 85.8731 14.8613 86.2251 14.584C86.5771 14.3067 86.7531 13.9013 86.7531 13.368C86.7531 12.824 86.5771 12.4187 86.2251 12.152C85.8731 11.8747 85.3931 11.736 84.7851 11.736H82.5611ZM92.5233 15.4C92.5233 16.1147 92.6726 16.7493 92.9713 17.304C93.2699 17.8587 93.6806 18.296 94.2033 18.616C94.7259 18.936 95.3339 19.096 96.0273 19.096C96.7206 19.096 97.3286 18.936 97.8513 18.616C98.3739 18.296 98.7793 17.8587 99.0673 17.304C99.3659 16.7493 99.5153 16.1147 99.5153 15.4C99.5153 14.6853 99.3713 14.0507 99.0833 13.496C98.7953 12.9413 98.3899 12.504 97.8673 12.184C97.3446 11.864 96.7313 11.704 96.0273 11.704C95.3339 11.704 94.7259 11.864 94.2033 12.184C93.6806 12.504 93.2699 12.9413 92.9713 13.496C92.6726 14.0507 92.5233 14.6853 92.5233 15.4ZM90.1073 15.4C90.1073 14.5467 90.2566 13.768 90.5553 13.064C90.8539 12.3493 91.2699 11.7307 91.8033 11.208C92.3366 10.6853 92.9606 10.2853 93.6753 10.008C94.4006 9.72 95.1846 9.576 96.0273 9.576C96.8806 9.576 97.6646 9.72 98.3793 10.008C99.0939 10.2853 99.7179 10.6853 100.251 11.208C100.795 11.7307 101.211 12.3493 101.499 13.064C101.798 13.768 101.947 14.5467 101.947 15.4C101.947 16.2427 101.798 17.0267 101.499 17.752C101.211 18.4667 100.801 19.0907 100.267 19.624C99.7446 20.1573 99.1206 20.5733 98.3953 20.872C97.6806 21.16 96.8913 21.304 96.0273 21.304C95.1633 21.304 94.3686 21.16 93.6432 20.872C92.9286 20.5733 92.3046 20.1573 91.7713 19.624C91.2379 19.0907 90.8273 18.4667 90.5393 17.752C90.2513 17.0267 90.1073 16.2427 90.1073 15.4ZM105.556 15.4C105.556 16.136 105.721 16.7813 106.052 17.336C106.393 17.88 106.836 18.3013 107.38 18.6C107.924 18.888 108.516 19.032 109.156 19.032C109.689 19.032 110.164 18.9627 110.58 18.824C110.996 18.6853 111.369 18.4987 111.7 18.264C112.041 18.0293 112.335 17.7733 112.58 17.496V20.072C112.121 20.4347 111.62 20.7173 111.076 20.92C110.543 21.1227 109.865 21.224 109.044 21.224C108.191 21.224 107.396 21.0853 106.66 20.808C105.935 20.5307 105.3 20.1307 104.756 19.608C104.223 19.0853 103.807 18.472 103.508 17.768C103.22 17.0533 103.076 16.264 103.076 15.4C103.076 14.536 103.22 13.752 103.508 13.048C103.807 12.3333 104.223 11.7147 104.756 11.192C105.3 10.6693 105.935 10.2693 106.66 9.992C107.396 9.71467 108.191 9.576 109.044 9.576C109.865 9.576 110.543 9.67733 111.076 9.88C111.62 10.0827 112.121 10.3653 112.58 10.728V13.304C112.335 13.0267 112.041 12.7707 111.7 12.536C111.369 12.3013 110.996 12.1147 110.58 11.976C110.164 11.8373 109.689 11.768 109.156 11.768C108.516 11.768 107.924 11.9173 107.38 12.216C106.836 12.504 106.393 12.92 106.052 13.464C105.721 14.008 105.556 14.6533 105.556 15.4Z" fill="white"/>
<path d="M17.8242 0.0187087C8.02081 -0.426596 0.591138 7.14175 0.0360582 15.8489C-0.586581 25.6292 6.92891 33.8819 16.8053 33.9987C26.3622 34.1137 33.9251 26.5307 34 17.0151C33.9945 7.95571 26.9154 0.432988 17.8242 0.0187087ZM16.9824 30.6498C9.35008 30.6206 3.27524 24.5068 3.30628 16.8855C3.3355 9.43762 9.51624 3.30922 17.008 3.30192C24.6038 3.29279 30.7079 9.50698 30.6677 17.2085C30.6294 24.6145 24.4541 30.6808 16.9824 30.6498Z" fill="white"/>
<path d="M17.5701 5.24387C10.7842 4.93374 5.63911 10.175 5.25583 16.2025C4.82328 22.9725 10.0286 28.6862 16.8656 28.7683C23.4817 28.8486 28.7181 23.5982 28.7692 17.0107C28.7655 10.7369 23.865 5.53029 17.5701 5.24387ZM22.3228 17.038C22.3228 17.7896 22.3136 18.5394 22.3264 19.2892C22.3355 19.8201 22.1165 20.2032 21.6621 20.4659C20.3425 21.2248 19.0229 21.9801 17.7088 22.7481C17.2288 23.0291 16.778 23.0254 16.298 22.7426C15.0039 21.9837 13.7081 21.2339 12.4031 20.4951C11.9176 20.2214 11.6749 19.8256 11.673 19.2801C11.6676 17.7568 11.6694 16.2335 11.673 14.7102C11.673 14.1647 11.9194 13.7707 12.4049 13.497C13.7117 12.76 15.0058 12.0029 16.3016 11.2495C16.7798 10.9722 17.2489 10.9758 17.7216 11.2513C19.0174 12.0029 20.3115 12.76 21.6128 13.5025C22.1238 13.7926 22.3447 14.2049 22.3282 14.7887C22.3082 15.5384 22.3246 16.2882 22.3228 17.038Z" fill="white"/>
</svg>
